<?xml version="1.0" standalone="no"?>
<!DOCTYPE svg PUBLIC "-//W3C//DTD SVG 20010904//EN"
 "http://www.w3.org/TR/2001/REC-SVG-20010904/DTD/svg10.dtd">
<svg version="1.0" xmlns="http://www.w3.org/2000/svg"
 width="300.000000pt" height="300.000000pt" viewBox="0 0 300.000000 300.000000"
 preserveAspectRatio="xMidYMid meet">

<g transform="translate(0.000000,300.000000) scale(0.100000,-0.100000)"
fill="#000000" stroke="none">
<path d="M1380 2605 c-8 -2 -49 -9 -90 -15 -408 -67 -757 -392 -873 -814 -19
-71 -22 -106 -22 -276 0 -170 3 -205 22 -276 84 -304 283 -558 553 -702 89
-48 217 -94 315 -113 91 -18 329 -18 420 0 82 16 219 63 290 99 146 74 327
231 414 359 108 161 190 392 191 536 0 26 5 47 10 47 6 0 10 23 10 50 0 28 -4
50 -10 50 -5 0 -10 21 -10 48 -1 99 -47 266 -111 395 -58 116 -113 193 -208
288 -159 158 -341 259 -556 306 -64 13 -310 27 -345 18z m-204 -867 l265 -142
-3 -89 -3 -89 -260 -139 c-143 -76 -264 -139 -268 -139 -4 0 -6 39 -5 86 l3
87 182 96 c100 53 179 99 177 103 -3 4 -85 49 -184 100 l-180 93 0 88 c0 48 2
87 5 87 3 0 125 -64 271 -142z m750 1 l265 -142 -3 -90 -3 -90 -260 -138
c-143 -76 -263 -139 -267 -139 -5 0 -8 38 -8 84 l0 85 185 97 c102 54 185 101
185 104 0 3 -82 48 -183 100 l-182 96 -3 87 c-1 48 0 87 3 87 3 0 125 -64 271
-141z"/>
</g>
</svg>
